<?xml version="1.0" standalone="no"?>
<!DOCTYPE svg PUBLIC "-//W3C//DTD SVG 20010904//EN"
 "http://www.w3.org/TR/2001/REC-SVG-20010904/DTD/svg10.dtd">
<svg version="1.0" xmlns="http://www.w3.org/2000/svg"
 width="512.000000pt" height="512.000000pt" viewBox="0 0 512.000000 512.000000"
 preserveAspectRatio="xMidYMid meet">
<metadata>
Created by potrace 1.14, written by Peter Selinger 2001-2017
</metadata>
<g transform="translate(0.000000,512.000000) scale(0.100000,-0.100000)"
fill="#000000" stroke="none">
<path d="M644 4471 c-35 -11 -66 -32 -106 -71 -73 -74 -88 -121 -88 -282 l0
-118 -140 0 c-154 0 -192 -9 -244 -58 -16 -15 -37 -45 -47 -67 -18 -38 -19
-83 -19 -840 0 -528 4 -813 11 -838 13 -49 63 -105 114 -128 33 -15 66 -19
183 -19 l142 0 1 -122 c1 -144 1 -145 28 -202 28 -56 81 -109 140 -137 42 -21
60 -23 221 -23 96 0 187 3 201 6 76 18 148 82 187 166 l24 53 0 440 0 439 128
0 128 0 4 -107 c3 -81 9 -119 24 -153 18 -38 167 -228 251 -320 l23 -25 0
-682 c0 -479 3 -689 11 -706 26 -58 104 -56 135 4 l15 29 594 -1 c488 0 595
-3 595 -13 0 -42 76 -78 111 -52 38 27 39 45 39 501 l0 446 -25 24 c-13 14
-30 25 -38 25 -10 0 -14 19 -14 83 0 83 0 83 29 96 39 18 48 45 48 152 l0 89
101 123 c56 67 112 136 126 152 50 60 67 112 71 228 l4 107 128 0 128 0 0
-439 0 -439 25 -57 c31 -67 83 -119 146 -149 42 -19 63 -21 231 -21 171 1 188
2 231 23 62 30 111 79 140 138 21 43 24 65 27 187 l4 137 142 0 c131 0 146 2
192 25 52 26 88 70 104 126 6 21 10 340 10 832 0 872 2 837 -58 900 -56 59
-80 65 -259 66 l-133 1 0 118 c0 159 -15 208 -84 278 -81 80 -102 86 -300 89
-163 3 -195 -1 -261 -30 -66 -30 -133 -116 -150 -193 -4 -18 -7 -224 -7 -457
l-1 -425 -192 0 -191 0 1 113 c1 179 -19 246 -96 319 -82 77 -222 98 -320 48
l-43 -23 -16 24 c-74 113 -206 162 -335 125 -46 -14 -69 -29 -115 -74 l-56
-57 -45 25 c-37 21 -57 25 -124 25 -94 0 -151 -23 -211 -85 -38 -39 -38 -39
-61 -20 -98 77 -275 59 -368 -37 -63 -65 -79 -113 -83 -255 l-4 -128 -179 0
-179 0 1 93 c1 162 3 154 -38 180 l-38 24 1 74 c1 70 2 75 27 87 46 23 51 43
50 239 -1 172 -3 186 -26 237 -30 66 -79 115 -144 146 -44 22 -62 24 -219 25
-130 1 -184 -2 -220 -14z"/>
</g>
</svg>
